# xmcd CD database file
#
# Track frame offsets:
#	150
#	17842
#	37356
#	61080
#	86284
#	101995
#	122104
#	148203
#	174579
#	193683
#	208037
#	222987
#	236098
#	256989
#	280771
#	301823
#	320463
#
# Disc length: 4536 seconds
#
# Revision: 0
# Processed by: cddbd v1.5.1PL0 Copyright (c) Steve Scherf et al.
# Submitted via: CDex 1.50
#
DISCID=0111b611
DTITLE=Deep Forest - "BOHEME"
DYEAR=1998
DGENRE=New Age
TTITLE0=Traccia Audio 01
TTITLE1=Traccia Audio 02
TTITLE2=Traccia Audio 03
TTITLE3=Traccia Audio 04
TTITLE4=Traccia Audio 05
TTITLE5=Traccia Audio 06
TTITLE6=Traccia Audio 07
TTITLE7=Traccia Audio 08
TTITLE8=Traccia Audio 09
TTITLE9=Traccia Audio 10
TTITLE10=Traccia Audio 11
TTITLE11=Traccia Audio 12
TTITLE12=Traccia Audio 13
TTITLE13=Traccia Audio 14
TTITLE14=Traccia Audio 15
TTITLE15=Traccia Audio 16
TTITLE16=Traccia Audio 17
EXTD=YEAR: 1998
EXTT0=
EXTT1=
EXTT2=
EXTT3=
EXTT4=
EXTT5=
EXTT6=
EXTT7=
EXTT8=
EXTT9=
EXTT10=
EXTT11=
EXTT12=
EXTT13=
EXTT14=
EXTT15=
EXTT16=
PLAYORDER=
